<svg width="1440" height="320" viewBox="0 0 1440 320" fill="none" xmlns="http://www.w3.org/2000/svg">
<g clip-path="url(#clip0_1_4)">
<mask id="mask0_1_4" style="mask-type:luminance" maskUnits="userSpaceOnUse" x="0" y="0" width="1440" height="320">
<path d="M0 0H1440V320H0V0Z" fill="white"/>
</mask>
<g mask="url(#mask0_1_4)">
<path d="M0 0H1440V320H0V0Z" fill="#301534"/>
<path d="M-676 -182C-454 -9.99998 -396.863 71.888 -197.5 143.5C-99 178.882 -36.919 170.726 -4.75098 170.108C99.736 168.098 199.858 126.871 293.882 84.613C332.236 67.375 369.764 48.424 405.945 26.983C429.848 12.818 464.815 -6.92998 470.666 -37.437C472.986 -49.539 454.297 -49.677 446.895 -47.226C433.384 -42.752 420.945 -30.682 410.839 -21.557C391.708 -4.28398 373.777 14.391 357.604 34.474C323.876 76.357 289.57 134.721 323.446 186.488C340.733 212.903 367.386 232.181 395.558 245.615C451.74 272.406 514.763 284.357 576.336 289.761C740.774 304.193 905.3 286.3 1059.34 226.139C1139.1 194.991 1217.89 155.6 1283.57 99.894C1332.13 58.708 1386.37 3.34602 1394.23 -63.006C1405.16 -155.193 1300.19 -199.068 1224.94 -211.424C1163.53 -221.508 1101.19 -215.588 1040.87 -201.836C962.608 -183.996 891.864 -154.166 826.629 -107.452C696.627 -14.359 591.679 120.961 554.163 278.375C538.523 344 537.515 416.585 559.656 480.926C581.108 543.264 628.852 591.502 683.704 625.849C748.821 666.623 820.865 687.989 896.543 699.059C997.017 713.755 1099.36 711.292 1199.57 696.062C1375.74 669.29 1552.3 607.631 1704.75 514.985C1807.97 452.26 1904.05 380.835 1984.81 290.56C2002.51 270.767 2016.62 249.685 2028.55 226.039C2172.11 -58.5 2095.5 -145.528 2095.5 -151" stroke="#AD28EB" stroke-width="3" stroke-linecap="round"/>
</g>
</g>
<defs>
<clipPath id="clip0_1_4">
<rect width="1440" height="320" fill="white"/>
</clipPath>
</defs>
</svg>
