<svg width="46" height="45" viewBox="0 0 46 45" fill="none" xmlns="http://www.w3.org/2000/svg">
<path d="M45.4871 22.1774C45.4925 22.8276 45.29 23.4633 44.9079 23.9961C44.5258 24.5289 43.9831 24.9323 43.3551 25.1503L30.4682 29.7212L25.7843 42.2913C25.5536 42.8983 25.1379 43.4218 24.5932 43.7916C24.0484 44.1613 23.4007 44.3595 22.7371 44.3595C22.0735 44.3595 21.4258 44.1613 20.8811 43.7916C20.3364 43.4218 19.9207 42.8983 19.6899 42.2913L15.0047 29.7073L2.12044 25.1503C1.49825 24.9252 0.961605 24.5196 0.582631 23.9882C0.203657 23.4567 0.000518799 22.8248 0.000518799 22.1774C0.000518799 21.53 0.203657 20.8981 0.582631 20.3666C0.961605 19.8352 1.49825 19.4296 2.12044 19.2045L15.0177 14.6336L19.6899 2.06355C19.9207 1.45653 20.3364 0.932976 20.8811 0.563245C21.4258 0.193514 22.0735 -0.00466919 22.7371 -0.00466919C23.4007 -0.00466919 24.0484 0.193514 24.5932 0.563245C25.1379 0.932976 25.5536 1.45653 25.7843 2.06355L30.4695 14.6463L43.3538 19.2045C43.982 19.4223 44.5251 19.8256 44.9074 20.3584C45.2897 20.8912 45.4924 21.527 45.4871 22.1774Z" fill="#AD28EB"/>
</svg>
