<svg width="26" height="26" viewBox="0 0 26 26" fill="none" xmlns="http://www.w3.org/2000/svg">
<path d="M13.0011 0.678431C15.5721 0.678635 18.0853 1.41662 20.2229 2.79907C22.3605 4.18151 24.0266 6.14633 25.0103 8.44507C25.994 10.7438 26.2513 13.2732 25.7496 15.7135C25.2479 18.1537 24.0097 20.3952 22.1917 22.1544C20.3736 23.9137 18.0573 25.1117 15.5357 25.597C13.0141 26.0824 10.4004 25.8332 8.02512 24.881C5.64984 23.9288 3.61966 22.3164 2.19131 20.2476C0.762953 18.1788 0.000575289 15.7466 0.00057528 13.2586C0.00480933 9.92309 1.37586 6.7254 3.81302 4.36686C6.25018 2.00832 9.55445 0.682528 13.0011 0.678431ZM8.00057 14.2258H12.0006V18.0968C12.0006 18.3536 12.106 18.5998 12.2936 18.7814C12.4813 18.963 12.7357 19.065 13.0011 19.065C13.2665 19.065 13.521 18.963 13.7086 18.7814C13.8962 18.5998 14.0016 18.3536 14.0016 18.0968V14.2258H18.0016C18.2612 14.2176 18.5073 14.112 18.6879 13.9314C18.8685 13.7508 18.9695 13.5094 18.9695 13.258C18.9695 13.0067 18.8685 12.7652 18.6879 12.5847C18.5073 12.4041 18.2612 12.2985 18.0016 12.2903H14.0016V8.41933C14.0016 8.16254 13.8962 7.91626 13.7086 7.73467C13.521 7.55309 13.2665 7.45108 13.0011 7.45108C12.7357 7.45108 12.4813 7.55309 12.2936 7.73467C12.106 7.91626 12.0006 8.16254 12.0006 8.41933V12.2903H8.00057C7.73522 12.2903 7.48073 12.3923 7.29309 12.5739C7.10545 12.7555 7.00004 13.0018 7.00004 13.2586C7.00004 13.5154 7.10545 13.7616 7.29309 13.9432C7.48073 14.1248 7.73522 14.2258 8.00057 14.2258Z" fill="#AD28EB"/>
</svg>
